<?xml version="1.0" encoding="utf-8"?>
<!-- Generator: Adobe Illustrator 16.0.4, SVG Export Plug-In . SVG Version: 6.00 Build 0)  -->
<!DOCTYPE svg PUBLIC "-//W3C//DTD SVG 1.1//EN" "http://www.w3.org/Graphics/SVG/1.1/DTD/svg11.dtd">
<svg version="1.1" id="Layer_1" xmlns="http://www.w3.org/2000/svg" xmlns:xlink="http://www.w3.org/1999/xlink" x="0px" y="0px"
	 width="412.28px" height="52px" viewBox="0 0 412.28 52" enable-background="new 0 0 412.28 52" xml:space="preserve">
<g>
	<path fill="#FFFFFF" d="M395.007,20.842h1.499l6.854,15.883l-0.215,1.426c-0.143,1.035-0.857,5.104-2.037,5.461v-0.107
		c0.145-0.5,0.182-0.894,0.182-1.213c0-1.214-0.857-2.142-2.356-2.142c-1.569,0-2.356,1.069-2.356,2.427
		c0,1.463,1.357,2.498,2.928,2.498c2.817,0,3.533-3.104,3.855-4.603l0.961-4.355l1.855-4.639l3.533-7.959
		c0.786-1.818,1.502-2.677,2.285-2.677h0.285V20.2h-5.566v0.642h0.75c1.141,0,1.641,0.644,1.641,1.249
		c0,0.715-0.464,1.892-1.035,3.247l-2.07,4.89l-4.175-9.386h2.356V20.2h-9.173V20.842z M386.016,20.842v11.42
		c0,3.391,2.924,4.069,3.926,4.069c2.178,0,3.64-0.894,4.746-2.749l-0.465-0.249c-0.427,0.643-0.998,1.499-1.889,1.499
		c-0.931,0-1.395-0.676-1.395-1.855V20.842h3.283V20.2h-3.283v-7.672h-0.643c0,3.783-2.568,7.672-6.172,7.672v0.642H386.016z
		 M375.74,13.812c0,1.606,1.284,2.891,2.891,2.891s2.891-1.284,2.891-2.891s-1.284-2.891-2.891-2.891S375.74,12.205,375.74,13.812z
		 M373.704,35.904h9.852V35.26h-2.464V19.272c-0.749,0.928-3.389,0.928-4.854,0.928h-2.534v0.642h2.463V35.26h-2.463V35.904z
		 M360.325,36.331h0.643c0.178-0.571,0.749-0.856,1.462-0.856c0.928,0,2.034,0.856,4.033,0.856c3.389,0,5.71-2.927,5.71-5.854
		c0-4.353-2.998-4.673-6.816-5.21c-1.999-0.285-3.246-0.605-3.246-2.178c0-1.677,1.462-2.674,3.391-2.674
		c2.674,0,4.104,2.106,4.995,4.425h0.569l-0.213-5.068h-0.535c0,0.428-0.43,0.786-1.105,0.786c-1.143,0-2.07-0.786-3.711-0.786
		c-3.572,0-5.32,3.034-5.32,5.317c0,4.604,3.496,4.997,6.211,5.319c2.568,0.32,3.641,0.569,3.641,2.21
		c0,1.892-1.57,3.071-3.498,3.071c-2.711,0-4.925-2.749-5.566-5.354h-0.643V36.331z M344.409,35.904h10.672V35.26h-3.283v-9.1
		c0-2.749,0.856-4.675,3.105-5.675h0.141c-0.605,0.642-0.856,1.215-0.856,2.105c0,1.392,1.035,2.319,2.429,2.319
		c1.712,0,2.711-1.25,2.711-2.604c0-1.713-1.143-2.748-2.82-2.748c-2.283,0-4.031,1.57-4.709,3.355h-0.071v-3.641
		c-0.749,0.928-3.392,0.928-4.854,0.928h-2.464v0.642h2.464V35.26h-2.464V35.904z M334.204,26.624v-3.068
		c0-2.393,1.035-3.141,2.249-3.141c1.714,0,2.249,1.178,2.249,3.141v3.068H334.204z M344.055,27.267
		c-0.037-3.855-3.605-7.566-7.352-7.495c-4.211,0-7.852,3.64-7.852,8.457c0,4.641,3.389,8.103,7.957,8.103
		c4.393,0,6.567-2.712,7.354-6.245h-0.643c-0.785,3.318-2.855,5.389-5.639,5.389c-3.318,0-3.678-2.783-3.678-5.21v-2.998H344.055z
		 M319.54,36.331h0.963l5.283-12.49c0.892-1.999,1.641-2.962,2.461-2.999h0.322V20.2H323v0.642h0.679
		c1.035,0,1.644,0.392,1.644,1.322c0,0.571-0.182,1.354-0.608,2.354l-2.427,5.71l-4.176-9.386h2.143V20.2h-8.958v0.642h1.534
		L319.54,36.331z M303.588,13.812c0,1.606,1.285,2.891,2.891,2.891s2.891-1.284,2.891-2.891s-1.285-2.891-2.891-2.891
		S303.588,12.205,303.588,13.812z M301.555,35.904h9.849V35.26h-2.462V19.272c-0.748,0.928-3.392,0.928-4.853,0.928h-2.534v0.642
		h2.461V35.26h-2.461V35.904z M280.716,35.904h9.492V35.26h-2.104v-9.778c0-1.821,1.783-4.425,3.782-4.425
		c1.035,0,2.105,0.429,2.105,2.926V35.26h-2.034v0.645h9.422V35.26h-2.463v-9.956c0-3.855-1.641-5.532-5.031-5.532
		c-2.391,0-4.747,1.25-5.71,3.317h-0.071v-3.817c-0.75,0.928-3.391,0.928-4.854,0.928h-2.533v0.642h2.461V35.26h-2.461V35.904z
		 M257.806,11.42h2.784v16.166c0,5.532,3.82,8.887,9.636,8.887c6.567,0,9.423-3.462,9.423-8.708V14.418
		c0-2.069,0.57-2.998,1.855-2.998h0.928v-0.642h-7.066v0.642h1.034c1.82,0,2.392,0.929,2.392,2.998v13.561
		c0,4.854-2.928,7.209-6.388,7.209c-5.212,0-6.245-3.498-6.245-8.066V11.42h2.891v-0.642h-11.243V11.42z M228.94,35.904h9.494V35.26
		h-2.106v-9.778c0-1.821,1.784-4.425,3.783-4.425c1.035,0,2.104,0.429,2.104,2.926V35.26h-2.033v0.645h9.421V35.26h-2.463v-9.956
		c0-3.855-1.641-5.532-5.031-5.532c-2.391,0-4.746,1.25-5.711,3.317h-0.07v-3.817c-0.75,0.928-3.391,0.928-4.852,0.928h-2.536v0.642
		h2.462V35.26h-2.462V35.904z M216.952,24.197c0-2.678,1.107-3.783,2.926-3.783c1.821,0,2.927,1.105,2.927,3.783v7.708
		c0,2.678-1.106,3.784-2.927,3.784c-1.819,0-2.926-1.106-2.926-3.784V24.197z M211.384,28.05c0,4.891,3.783,8.281,8.494,8.281
		s8.495-3.391,8.495-8.281c0-4.888-3.784-8.278-8.495-8.278S211.384,23.162,211.384,28.05z M200.501,35.904h9.85V35.26h-2.462V9.708
		c-0.643,1.07-2.606,1.07-5.139,1.07h-2.249v0.642h2.462V35.26h-2.462V35.904z M190.011,35.904h9.849V35.26h-2.462V9.708
		c-0.642,1.07-2.605,1.07-5.139,1.07h-2.247v0.642h2.462V35.26h-2.462V35.904z M179.343,26.624v-3.068
		c0-2.393,1.034-3.141,2.247-3.141c1.713,0,2.249,1.178,2.249,3.141v3.068H179.343z M189.192,27.267
		c-0.035-3.855-3.604-7.566-7.351-7.495c-4.211,0-7.852,3.64-7.852,8.457c0,4.641,3.39,8.103,7.958,8.103
		c4.391,0,6.567-2.712,7.353-6.245h-0.642c-0.786,3.318-2.855,5.389-5.64,5.389c-3.319,0-3.674-2.783-3.674-5.21v-2.998H189.192z
		 M143.052,35.904h6.924V35.26h-0.5c-1.926,0-2.676-0.501-2.676-3.389V11.634h0.071l8.53,24.271h0.963l8.315-23.842h0.07V35.26
		h-3.068v0.645h11.313V35.26h-2.677V11.42h2.677v-0.642h-8.602l-6.031,17.237h-0.071l-5.925-17.237h-9.136v0.642h2.712v20.77
		c0,1.536-0.356,3.069-2.748,3.069h-0.143V35.904z M124.141,26.624v-3.068c0-2.393,1.035-3.141,2.249-3.141
		c1.714,0,2.249,1.178,2.249,3.141v3.068H124.141z M133.991,27.267c-0.036-3.855-3.604-7.566-7.352-7.495
		c-4.211,0-7.852,3.64-7.852,8.457c0,4.641,3.39,8.103,7.958,8.103c4.39,0,6.567-2.712,7.353-6.245h-0.643
		c-0.785,3.318-2.855,5.389-5.64,5.389c-3.319,0-3.675-2.783-3.675-5.21v-2.998H133.991z M109.939,13.812
		c0,1.606,1.284,2.891,2.891,2.891s2.891-1.284,2.891-2.891s-1.284-2.891-2.891-2.891S109.939,12.205,109.939,13.812z
		 M107.904,35.904h9.85V35.26h-2.462V19.272c-0.749,0.928-3.39,0.928-4.854,0.928h-2.534v0.642h2.462V35.26h-2.462V35.904z
		 M98.806,29.622c-1.427,0-2.177-0.464-2.177-4.748c0-2.891,0.321-4.459,2.177-4.459c1.677,0,2.213,0.464,2.249,4.567
		C101.019,29.371,100.09,29.622,98.806,29.622z M100.448,37.186c3.568,0,4.746,0.322,4.746,2.5c0,2.605-3.211,5.032-6.816,5.032
		c-3.211,0-4.959-2.178-5.031-3.892c0-1.567,0.534-2.603,1.499-3.641H100.448z M95.344,32.691c-0.891,0-2.105-0.037-2.105-1.001
		c0-0.892,1.534-1.855,2.891-1.855c0.393,0,0.786,0.107,1.178,0.215c0.429,0.142,0.893,0.215,1.464,0.215
		c3.068,0,6.353-1.748,6.353-5.14c0-1.143-0.536-2.749-1.535-3.605c0.642-0.641,0.963-1.427,2.356-1.605v0.072
		c-0.751,0.392-0.964,0.855-0.964,1.569c0,0.82,0.571,1.641,1.642,1.641c1.141,0,1.784-0.854,1.784-1.818
		c0-1.249-1.356-1.893-2.427-1.893c-1.178,0-2.07,0.785-2.749,1.571c-1.034-0.75-2.462-1.285-4.46-1.285
		c-2.998,0-6.21,1.963-6.21,5.21c0,1.963,1.07,3.498,2.961,4.355v0.07c-1.392,0.179-3.568,1.143-3.568,4.104
		c0,1.784,0.821,3.14,2.319,3.569v0.07c-1.427,0.394-3.069,1.819-3.069,3.533c0,2.642,3.104,4.675,7.067,4.675
		c4.959,0,8.208-3.354,8.208-7.707c0-3.462-1.712-5.034-5.211-4.961H95.344z M80.823,26.624v-3.068c0-2.393,1.034-3.141,2.249-3.141
		c1.712,0,2.248,1.178,2.248,3.141v3.068H80.823z M90.671,27.267c-0.035-3.855-3.604-7.566-7.351-7.495
		c-4.211,0-7.852,3.64-7.852,8.457c0,4.641,3.39,8.103,7.958,8.103c4.391,0,6.567-2.712,7.353-6.245h-0.642
		c-0.785,3.318-2.855,5.389-5.638,5.389c-3.319,0-3.676-2.783-3.676-5.21v-2.998H90.671z M54.238,35.904h9.492V35.26h-2.106v-9.778
		c0-1.821,1.785-4.425,3.783-4.425c1.035,0,2.105,0.429,2.105,2.926V35.26H65.48v0.645h9.421V35.26h-2.462v-9.956
		c0-3.855-1.642-5.532-5.033-5.532c-2.39,0-4.746,1.25-5.709,3.317h-0.072v-3.817c-0.748,0.928-3.39,0.928-4.852,0.928h-2.534v0.642
		h2.462V35.26h-2.462V35.904z M39.822,35.904h10.67V35.26h-3.282v-9.1c0-2.749,0.857-4.675,3.104-5.675h0.143
		c-0.606,0.642-0.855,1.215-0.855,2.105c0,1.392,1.034,2.319,2.427,2.319c1.712,0,2.712-1.25,2.712-2.604
		c0-1.713-1.143-2.748-2.819-2.748c-2.284,0-4.032,1.57-4.711,3.355h-0.072v-3.641c-0.749,0.928-3.39,0.928-4.852,0.928h-2.463
		v0.642h2.463V35.26h-2.463V35.904z M32.544,31.656c-0.071,1.89-1.141,3.604-2.819,3.604c-2.427,0-2.534-2.212-2.534-4.067
		c0-1.893,0.214-3.143,2.534-3.392l2.819-0.285V31.656z M37.254,24.84c0-4.069-3.818-5.068-7.494-5.068
		c-3.569,0-6.174,1.748-6.174,3.747c0,1.25,0.714,2.319,2.319,2.319c1.357,0,2.178-0.891,2.178-2.141
		c0-1.714-1.785-1.606-1.82-2.212c-0.035-0.786,2.034-1.071,3.247-1.071c2.677,0,3.034,1.32,3.034,3.46v2.998l-3.498,0.286
		c-3.247,0.249-6.781,1.105-6.781,4.816c0,3.105,2.785,4.355,5.532,4.355c1.392,0,3.855-0.534,4.782-2.248
		c0.643,1.496,1.964,2.248,3.569,2.248c2.319,0,3.818-1.392,3.818-3.498h-0.643c0,0.93-0.393,1.999-1.249,1.999
		c-0.642,0-0.822-0.676-0.822-1.784V24.84z M20.056,10.957h-0.642c-0.036,0.75-0.428,1.071-1.178,1.071
		c-1.499,0-3.926-1.82-6.495-1.82C4.425,10.207,0,17.415,0,23.768c0,6.39,4.211,12.705,11.278,12.705
		c4.281,0,5.888-2.033,7.03-2.033c0.75,0,1.177,0.93,1.319,1.465h0.536v-8.745h-0.536l-0.213,1.213
		c-0.5,2.891-3.176,7.459-7.78,7.459c-4.068,0-5.64-3.818-5.64-12.49c0-9.101,2.143-12.49,5.746-12.49
		c4.07,0,7.102,4.888,7.673,8.529h0.642V10.957z"/>
</g>
</svg>
