<?xml version="1.0" encoding="UTF-8" standalone="no"?>
<!-- Generator: Adobe Illustrator 16.0.4, SVG Export Plug-In . SVG Version: 6.00 Build 0)  -->

<svg
   version="1.1"
   id="Layer_1"
   x="0px"
   y="0px"
   width="401.516px"
   height="92.447px"
   viewBox="0 0 401.516 92.447"
   enable-background="new 0 0 401.516 92.447"
   xml:space="preserve"
   sodipodi:docname="logo.svg"
   inkscape:version="1.2.1 (9c6d41e4, 2022-07-14)"
   xmlns:inkscape="http://www.inkscape.org/namespaces/inkscape"
   xmlns:sodipodi="http://sodipodi.sourceforge.net/DTD/sodipodi-0.dtd"
   xmlns="http://www.w3.org/2000/svg"
   xmlns:svg="http://www.w3.org/2000/svg"><defs
   id="defs89" /><sodipodi:namedview
   id="namedview87"
   pagecolor="#ffffff"
   bordercolor="#000000"
   borderopacity="0.25"
   inkscape:showpageshadow="2"
   inkscape:pageopacity="0.0"
   inkscape:pagecheckerboard="0"
   inkscape:deskcolor="#d1d1d1"
   showgrid="false"
   inkscape:zoom="2.5528141"
   inkscape:cx="135.73256"
   inkscape:cy="49.944882"
   inkscape:window-width="1816"
   inkscape:window-height="745"
   inkscape:window-x="83"
   inkscape:window-y="193"
   inkscape:window-maximized="0"
   inkscape:current-layer="Layer_1" />
<g
   id="g66">
	<g
   id="g4">
		<path
   fill="#AF1F2D"
   d="M32.484,44.683h0.965c0.179-1.614,0.468-13.038,0.326-14.646h-0.97c0,0-1.503,6.589-5.477,10.633    c-3.624,3.685-7.633,4.118-10.389,3.009c-3.237-1.307-4.365-3.009-5.369-6.52c-1.017-3.553-1.221-9.128-1.221-14.217    c0-5.55,1.059-12.16,1.972-14.897c1.039-3.116,2.936-5.297,5.478-5.875c3.451-0.774,6.914-0.249,10.171,3.44    c2.592,2.931,3.831,6.266,5.013,10.207h0.933c0.108-1.363,0.141-12.066,0-13.571h-0.717c-0.609,1.145-0.786,1.035-1.326,1.287    c-0.537,0.251-1.827,0.178-2.831-0.393c-1-0.572-5.406-2.648-9.489-2.648c-2.077,0-3.688,0.177-5.658,0.927    C7.047,4.035,0,13.168,0,23.191c0,11.104,4.403,18.375,13.824,21.67c2.15,0.751,3.545,0.714,5.55,0.714    c2.971,0,6.518-1.322,8.525-2.328c1.779-0.887,2.649-1.072,3.331-0.464C31.854,43.341,32.196,43.969,32.484,44.683"
   id="path2" />
	</g>
	<g
   id="g8">
		<path
   fill="#AF1F2D"
   d="M53.148,42.136c-0.8,0.943-1.918,1.501-3.26,1.501c-2.828,0-4.045-2.53-4.045-5.372    c0-1.073-0.007-3.29,0.105-4.152c0.298-2.327,1.721-3.646,4.404-3.941c1.579-0.171,3.188-0.215,4.191-0.177v-1.396    c-5.444,0.144-9.012,0.787-11.174,1.432c-3.721,1.111-5.874,3.603-6.373,6.229c-0.536,2.83,0.284,5.337,1.826,6.591    c2.444,1.988,4.941,2.613,8.057,2.613c3.831,0,6.482-1.827,7.915-3.081c0,0,1.279,1.507,1.723,1.867    c0.963,0.784,2.756,1.433,4.223,1.433c1.504,0,3.279-0.626,4.119-1.433c1.145-1.112,2.184-2.727,2.578-4.371l-0.894-0.252    c-0.252,0.824-0.788,2.114-1.579,2.651c-0.609,0.417-1.281,0.245-1.789-0.754c-0.251-0.49-0.251-1.433-0.251-2.29V24.264    c0-1.433-0.826-2.972-1.22-3.544c-0.675-1.002-2.157-2.531-5.836-3.546c-3.365-0.934-7.123-0.86-9.667-0.251    c-2.366,0.566-6.77,2.435-6.77,6.59c0,2.363,2.077,3.941,4.047,3.941c1.968,0,4.083-1.579,4.083-3.872    c0-2.29-1.969-3.292-2.829-3.613c-0.859-0.324-0.101-0.996,0.035-1.079c0.858-0.5,1.971-1.178,4.62-1.178    c3.33,0,5.157,0.751,5.157,5.153v5.732v1.396v8.489C54.544,39.513,54.015,41.111,53.148,42.136"
   id="path6" />
	</g>
	<g
   id="g12">
		<path
   fill="#AF1F2D"
   d="M78.724,43.78h4.441v1.075H66.331V43.78h4.158V18.822h-3.941v-1.076h8.596    c1.539,0,3.083-1.002,3.651-1.574v4.185c0,0.576,0.289,0.434,0.539,0.146c0.682-0.789,2.613-3.58,6.733-3.58    c3.4,0,5.12,2.256,5.12,5.049c0,2.292-2.113,4.478-4.441,4.478c-2.505,0-4.512-2.081-4.512-4.37c0-1.683,0.566-2.043,0.643-2.438    c0.04-0.178-0.142-0.356-0.319-0.287c-1.862,0.747-3.833,3.728-3.833,8.311V43.78z"
   id="path10" />
	</g>
	<g
   id="g16">
		<path
   fill="#AF1F2D"
   d="M103.95,27.665V43.78h3.578v1.072H92.058V43.78h3.439V18.817h-3.224v-1.075h8.025    c1.538,0,3.082-1.001,3.652-1.574v5.445c0,0.5,0.287,0.59,0.608,0.196c0.853-1.049,2.063-2.161,3.439-3.008    c1.836-1.134,3.9-1.862,5.979-1.862c2.399,0,5.125,1.187,6.448,2.467c1.429,1.39,2.181,3.378,2.181,5.516v18.839h3.26v1.091    h-15.398v-1.091h3.58V22.564c0-1.616-1.111-3.408-3.402-3.408c-2.485,0-4.547,2.011-5.55,4.013    C104.487,24.389,103.95,26.176,103.95,27.665"
   id="path14" />
	</g>
	<g
   id="g20">
		<path
   fill="#AF1F2D"
   d="M135.436,28.674c0.038-1.29,0.075-3.579,0.11-5.621c0.018-1.151,0.115-2.825,0.605-3.615    c0.581-0.93,1.613-1.505,2.976-1.505c1.287,0,2.101,0.521,2.648,1.538c0.421,0.784,0.646,2.223,0.645,3.44    c-0.003,2.22,0.07,4.583,0.07,5.764H135.436l-0.179,1.397h16.907c0.07-0.716,0.081-2.29-0.501-4.117    c-0.611-1.909-2.45-4.76-4.084-6.197c-2.08-1.825-5.089-3.006-8.381-3.006c-2.867,0-5.597,1.061-8.307,3.291    c-3.225,2.654-5.089,7.13-5.089,11.604c0,3.762,1.242,7.461,4.085,10.351c2.075,2.116,6.288,3.617,10.025,3.617    c3.76,0,7.195-1.429,9.563-4.37c1.507-1.873,2.398-3.974,3.009-6.409l-1.183-0.32c-0.933,2.794-2.02,4.715-3.438,6.301    c-1.504,1.682-4.263,3.009-6.52,3.009c-2.11,0-3.614-0.824-4.655-2.436c-0.956-1.485-1.144-3.076-1.29-4.801    c-0.143-1.716-0.143-3.792-0.143-6.517L135.436,28.674z"
   id="path18" />
	</g>
	<g
   id="g24">
		<path
   fill="#AF1F2D"
   d="M206.069,28.446c0.038-1.294,0.07-3.583,0.108-5.625c0.02-1.148,0.115-2.826,0.606-3.616    c0.578-0.926,1.611-1.505,2.976-1.505c1.286,0,2.099,0.522,2.647,1.539c0.421,0.784,0.646,2.224,0.643,3.441    c-0.003,2.22,0.072,4.583,0.072,5.767H206.069l-0.179,1.393h16.903c0.07-0.715,0.081-2.291-0.5-4.116    c-0.609-1.909-2.45-4.758-4.084-6.197c-2.079-1.827-5.088-3.007-8.378-3.007c-2.869,0-5.602,1.066-8.31,3.292    c-3.226,2.652-5.09,7.13-5.09,11.605c0,3.76,1.246,7.457,4.087,10.35c2.077,2.114,6.289,3.619,10.025,3.619    c3.76,0,7.195-1.434,9.562-4.371c1.51-1.876,2.399-3.978,3.009-6.413l-1.183-0.321c-0.931,2.797-2.02,4.715-3.439,6.307    c-1.504,1.677-4.26,3.004-6.516,3.004c-2.115,0-3.615-0.824-4.656-2.432c-0.957-1.489-1.145-3.081-1.29-4.801    c-0.142-1.72-0.142-3.794-0.142-6.52L206.069,28.446z"
   id="path22" />
	</g>
	<g
   id="g28">
		<path
   fill="#AF1F2D"
   d="M157.069,46.553c-0.964,0.467-2.237,1.333-2.971,2.005c-1.005,0.93-1.971,2.54-1.971,4.123    c0,1.928,0.931,3.936,2.795,5.369c2.483,1.909,5.813,2.756,9.526,2.756c2.885,0,6.024-0.831,8.096-2.258    c2.255-1.554,3.769-3.446,4.796-5.977c0.522-1.284,0.968-3.763,0.968-5.516c0-1.575-0.467-3.401-1.11-4.655    c-0.614-1.198-1.641-2.101-2.938-2.65c-1.185-0.5-2.688-0.751-4.441-0.751h-10.494c-1.362,0-2.52-0.344-3.005-1.001    c-0.504-0.683-0.433-1.474,0.141-2.116c0.677-0.764,2.215-1.521,3.476-1.647c0.717-0.076,1.325-0.076,1.863,0    c0.858,0.113,1.538,0.504,3.545,0.504c2.005,0,4.788-0.695,6.479-1.685c2.689-1.579,4.23-4.302,4.23-7.093    c0-2.147-1.11-4.62-2.546-6.157c0.42-0.55,1.715-1.913,2.398-2.188c0.358-0.145,0.54,0.142,0.326,0.395    c-0.532,0.614-0.836,1.833-0.288,2.937c0.551,1.105,1.528,1.827,2.971,1.827c1.58,0,2.832-1.291,2.832-2.869    c0-1.182-0.613-2.187-1.684-2.935c-0.629-0.436-1.431-0.678-2.292-0.678c-0.967,0-1.936,0.394-2.615,0.75    c-0.679,0.358-1.648,1.255-2.435,2.079c-1.9-1.364-4.261-2.365-7.165-2.365l0.109,0.859c1.647,0,2.364,0.788,2.795,1.757    c0.446,1.005,0.465,1.952,0.465,3.652v5.372c0,1.502-0.162,2.416-0.608,3.47c-0.48,1.125-1.542,1.828-3.044,1.828    c-1.507,0-2.544-0.751-3.048-2.038c-0.453-1.171-0.355-3.189-0.355-3.189v-5.407c0,0-0.106-2.256,0.575-3.688    c0.325-0.691,1.258-1.757,3.221-1.757l-0.109-0.859c-3.079,0-5.407,0.933-7.411,2.398c-1.861,1.366-3.474,3.94-3.474,6.557    c0,2.61,1.303,5.587,4.121,7.199c0.249,0.142,0.393,0.462,0.031,0.572c-3.545,1.062-5.373,3.653-5.373,6.839    C153.451,42.821,154.98,45.021,157.069,46.553l1.506,0.503h12.246c1.506,0,2.43,0.115,3.367,0.641    c1.281,0.721,1.718,1.793,1.718,3.081c0,1.862-1.106,4.158-2.506,5.588c-1.835,1.886-4.906,3.332-8.345,3.332    c-3.222,0-5.739-1.025-7.481-2.756c-1.209-1.202-1.647-2.796-1.647-4.659c0-2.256,1.071-4.013,2.648-5.227L157.069,46.553z"
   id="path26" />
	</g>
	<g
   id="g32">
		<path
   fill="#AF1F2D"
   d="M193.582,43.78h3.224v1.075H181.69V43.78h3.585V18.817h-3.438v-1.072h8.092    c1.538,0,3.084-1.002,3.653-1.578V43.78z"
   id="path30" />
	</g>
	<g
   id="g36">
		<path
   fill="#AF1F2D"
   d="M189.177,11.388c2.688,0,4.863-2.182,4.863-4.864c0-2.687-2.175-4.86-4.863-4.86    c-2.686,0-4.86,2.173-4.86,4.86C184.316,9.206,186.491,11.388,189.177,11.388"
   id="path34" />
	</g>
	<g
   id="g40">
		<path
   fill="#AF1F2D"
   d="M189.177,6.523"
   id="path38" />
	</g>
	<g
   id="g44">
		<path
   fill="#AF1F2D"
   d="M280.738,43.538h-4.331V2.951h4.396V1.667h-14.471l-10.258,29.519L245.353,1.667h-15.468v1.291h4.624    v35.754c0,2.468-0.737,3.143-1.188,3.656c-0.537,0.615-1.211,1.092-2.751,1.092h-0.862v1.362h11.862v-1.312h-0.759    c-1.434,0-2.579-0.2-3.443-1.126c-0.66-0.704-1.24-2.716-1.24-4.111V4.288l14.718,40.534h1.969l13.883-40.243v38.959h-4.704v1.284    h18.745V43.538z"
   id="path42" />
	</g>
	<g
   id="g48">
		<path
   fill="#AF1F2D"
   d="M289.857,28.439h7.058c0-1.181-0.078-3.547-0.075-5.767c0.003-1.217-0.225-2.661-0.644-3.437    c-0.55-1.017-1.363-1.54-2.651-1.54c-1.361,0-2.395,0.577-2.973,1.503c-0.493,0.79-0.586,2.468-0.608,3.616    C289.927,24.859,289.894,27.149,289.857,28.439l-0.183,1.396c0,2.723,0,4.801,0.143,6.518c0.146,1.72,0.333,3.312,1.292,4.8    c1.039,1.608,2.547,2.431,4.656,2.431c2.256,0,5.016-1.323,6.519-3.008c1.419-1.584,2.507-3.505,3.438-6.302l1.181,0.324    c-0.609,2.435-1.496,4.539-3.006,6.409c-2.37,2.941-5.805,4.372-9.566,4.372c-3.736,0-7.947-1.506-10.025-3.62    c-2.84-2.889-4.086-6.587-4.086-10.35c0-4.475,1.866-8.949,5.086-11.603c2.714-2.229,5.446-3.295,8.311-3.295    c3.299,0,6.306,1.185,8.384,3.011c1.633,1.436,3.471,4.285,4.083,6.197c0.58,1.825,0.571,3.4,0.5,4.115h-16.908L289.857,28.439z"
   id="path46" />
	</g>
	<g
   id="g52">
		<path
   fill="#AF1F2D"
   d="M306.859,1.591h7.744c1.542-0.006,3.081-1.016,3.646-1.591v43.674h3.542v1.155h-15.535l-0.003-1.162h3.646    V2.769h-3.04V1.591z"
   id="path50" />
	</g>
	<g
   id="g56">
		<path
   fill="#AF1F2D"
   d="M323.871,1.591h7.742c1.545-0.006,3.082-1.016,3.649-1.591v43.674h3.539v1.155h-15.534l-0.004-1.162h3.65    V2.769h-3.043V1.591z"
   id="path54" />
	</g>
	<g
   id="g60">
		<path
   fill="#AF1F2D"
   d="M353.213,17.855c2.8,0,5.071,1.072,5.071,8.4v9.313c0,7.328-2.271,8.612-5.071,8.612    c-2.799,0-5.066-1.284-5.066-8.612v-9.313C348.146,18.927,350.414,17.855,353.213,17.855l-0.103-1.052    c-7.7,0-14.472,6.66-14.472,14.108c0,8.021,6.008,14.468,14.472,14.468c8.271,0,14.372-6.611,14.372-14.634    c0-7.832-6.484-13.942-14.372-13.942L353.213,17.855z"
   id="path58" />
	</g>
	<g
   id="g64">
		<path
   fill="#AF1F2D"
   d="M379.598,27.658v16.115h3.58v1.076h-15.471v-1.076h3.438V18.811h-3.22V17.74h8.019    c1.539,0,3.085-1.002,3.654-1.575v5.442c0,0.503,0.286,0.59,0.608,0.199c0.854-1.049,2.065-2.165,3.439-3.01    c1.834-1.136,3.904-1.863,5.979-1.863c2.4,0,5.126,1.193,6.449,2.47c1.433,1.387,2.184,3.379,2.184,5.517v18.838h3.259v1.092    h-15.4v-1.092h3.58V22.556c0-1.611-1.112-3.403-3.401-3.403c-2.486,0-4.549,2.007-5.552,4.01    C380.135,24.383,379.598,26.173,379.598,27.658"
   id="path62" />
	</g>
</g>

<text
   xml:space="preserve"
   style="font-style:normal;font-variant:normal;font-weight:bold;font-stretch:normal;font-size:41.3333px;font-family:'Helvetica Neue';-inkscape-font-specification:'Helvetica Neue, Bold';font-variant-ligatures:normal;font-variant-caps:normal;font-variant-numeric:normal;font-variant-east-asian:normal;text-align:end;text-anchor:end;fill:#ffffff"
   x="401.90942"
   y="83.437332"
   id="text259"><tspan
     sodipodi:role="line"
     id="tspan257"
     x="401.90942"
     y="83.437332"
     style="font-style:normal;font-variant:normal;font-weight:bold;font-stretch:normal;font-size:41.3333px;font-family:'Helvetica Neue';-inkscape-font-specification:'Helvetica Neue, Bold';font-variant-ligatures:normal;font-variant-caps:normal;font-variant-numeric:normal;font-variant-east-asian:normal;fill:#ffffff">VISION</tspan></text></svg>
